<?xml version="1.0" encoding="UTF-8"?>
<!DOCTYPE svg PUBLIC "-//W3C//DTD SVG 1.1//EN" "http://www.w3.org/Graphics/SVG/1.1/DTD/svg11.dtd">
<!-- Creator: CorelDRAW X6 -->
<svg xmlns="http://www.w3.org/2000/svg" xml:space="preserve" width="3.20308in" height="3.20598in" version="1.1" style="shape-rendering:geometricPrecision; text-rendering:geometricPrecision; image-rendering:optimizeQuality; fill-rule:evenodd; clip-rule:evenodd"
viewBox="0 0 3203 3206"
 xmlns:xlink="http://www.w3.org/1999/xlink">
 <defs>
  <style type="text/css">
   <![CDATA[
    .fil2 {fill:#292929;fill-rule:nonzero}
    .fil1 {fill:#6C6869;fill-rule:nonzero}
    .fil0 {fill:#F58534;fill-rule:nonzero}
   ]]>
  </style>
 </defs>
 <g id="__x0023_Layer_x0020_1">
  <metadata id="CorelCorpID_0Corel-Layer"/>
  <path class="fil0" d="M865 1622c0,0 -49,-28 -49,-76 0,-38 14,-24 17,-62 3,-38 56,-28 108,-31 20,-22 38,-38 49,-31 -21,-35 -3,-156 -128,-201 -125,-45 -142,-3 -173,-66 -31,-62 10,-59 45,-59 35,0 52,-21 59,-35 7,-14 45,-21 45,-21 0,0 -24,-62 -7,-80 17,-17 24,69 35,69 10,0 59,7 66,-66 7,-73 59,-21 49,3 -3,21 14,17 21,38 7,21 10,52 -14,66 66,28 128,125 201,135 73,10 111,45 156,94 54,59 135,43 357,133 35,10 74,21 166,-1 67,-17 104,21 198,28 94,7 96,34 96,34 0,0 -58,-12 -117,-2 -38,6 -118,-35 -166,-21 -49,14 -101,69 -49,90 52,21 14,90 69,146 14,17 21,31 21,31 0,0 73,-24 76,21 3,31 3,31 3,31 0,0 38,17 62,21 24,3 31,45 55,80 24,35 49,59 59,66 10,7 68,37 50,81 -9,19 -81,-16 -116,-86 -35,-69 -72,-74 -90,-79 -19,-5 51,25 53,97 -60,-7 -92,-46 -99,-116 -60,-2 -102,-44 -178,-30 -76,14 -109,-2 -148,-39 -5,-23 -12,-97 -32,-139 -16,2 -30,16 -60,-12 2,-21 -10,-24 -51,-30 0,0 -88,-9 -183,14 -95,23 -180,-19 -229,-65 -60,-21 -123,-35 -120,-14 2,21 30,49 -30,95 -37,-46 -35,-90 -23,-116 -28,-2 -28,-2 -28,-2 0,0 -5,21 -21,23 19,21 46,39 -6,83z"/>
  <path class="fil1" d="M1380 33l-1278 974c7,-1 13,-1 20,-1 97,0 177,79 177,177 0,26 -6,51 -16,73l1090 -973 1830 1490 -1823 -1740z"/>
  <path class="fil0" d="M0 1183c0,67 55,122 122,122 67,0 122,-55 122,-122 0,-67 -55,-122 -122,-122 -67,0 -122,55 -122,122z"/>
  <path class="fil2" d="M245 2759l-104 281 -141 0 360 -961 130 0 360 961 -146 0 -101 -281 -358 0zm310 -134l0 0 -130 -365 -132 365 262 0z"/>
  <polygon class="fil2" points="1453,3039 1453,2078 1906,2078 1906,2206 1585,2206 1585,2493 1906,2493 1906,2618 1585,2618 1585,3039 "/>
  <polygon class="fil2" points="2693,3039 2559,3039 2559,2078 2693,2078 2693,2486 3069,2486 3069,2078 3203,2078 3203,3039 3069,3039 3069,2623 2693,2623 "/>
 </g>
</svg>
