<?xml version="1.0" encoding="UTF-8" standalone="no"?>
<!DOCTYPE svg PUBLIC "-//W3C//DTD SVG 1.1//EN" "http://www.w3.org/Graphics/SVG/1.1/DTD/svg11.dtd">
<svg width="100%" height="100%" viewBox="0 0 961 962" version="1.1" xmlns="http://www.w3.org/2000/svg" xmlns:xlink="http://www.w3.org/1999/xlink" xml:space="preserve" xmlns:serif="http://www.serif.com/" style="fill-rule:evenodd;clip-rule:evenodd;stroke-linejoin:round;stroke-miterlimit:2;">
    <g id="Layer-1" serif:id="Layer 1" transform="matrix(2.70699,0,0,2.70699,178.632,162.482)">
        <g transform="matrix(8.00602,5.92091e-31,9.86819e-32,8.00602,-1579.88,-588.193)">
            <path d="M211.3,68C222.4,68 231.4,77 231.4,88.1C231.4,99.2 222.4,108.2 211.3,108.2C200.2,108.2 191.2,99.2 191.2,88.1C191.1,77 200.2,68 211.3,68M211.3,66C199.1,66 189.2,75.9 189.2,88.1C189.2,100.3 199.1,110.2 211.3,110.2C223.5,110.2 233.4,100.3 233.4,88.1C233.4,75.9 223.5,66 211.3,66Z" style="fill:rgb(201,201,206);fill-rule:nonzero;"/>
        </g>
        <g transform="matrix(1.10214,0,0,1.10214,53.7613,73.7662)">
            <path d="M0,21.547C0,21.547 -3.496,19.551 -3.496,16.056C-3.496,13.31 -2.498,14.308 -2.248,11.563C-1.998,8.818 1.748,9.566 5.492,9.316C6.906,7.735 8.236,6.571 8.986,7.069C7.488,4.573 8.736,-4.161 -0.248,-7.406C-9.236,-10.651 -10.484,-7.656 -12.73,-12.148C-14.977,-16.641 -11.982,-16.391 -9.486,-16.391C-6.99,-16.391 -5.742,-17.889 -5.242,-18.888C-4.744,-19.886 -1.998,-20.385 -1.998,-20.385C-1.998,-20.385 -3.746,-24.878 -2.498,-26.126C-1.25,-27.374 -0.748,-21.134 0,-21.134C0.75,-21.134 4.244,-20.635 4.742,-25.876C5.242,-31.117 8.986,-27.374 8.236,-25.626C7.988,-24.129 9.236,-24.379 9.734,-22.881C10.234,-21.384 10.484,-19.137 8.736,-18.139C13.479,-16.141 17.971,-9.153 23.211,-8.404C28.455,-7.656 31.195,-5.191 34.445,-1.666C38.354,2.578 44.175,1.413 60.151,7.902C62.647,8.651 65.476,9.4 72.132,7.818C76.956,6.571 79.62,9.316 86.358,9.816C93.097,10.315 93.263,12.229 93.263,12.229C93.263,12.229 89.104,11.397 84.86,12.062C82.138,12.489 76.374,9.566 72.88,10.564C69.386,11.563 65.642,15.556 69.386,17.054C73.13,18.552 70.384,23.543 74.378,27.537C75.376,28.785 75.876,29.783 75.876,29.783C75.876,29.783 81.116,28.037 81.366,31.281L81.616,33.527C81.616,33.527 84.362,34.776 86.108,35.026C87.856,35.276 88.354,38.27 90.103,40.766C91.849,43.262 93.597,45.008 94.345,45.508C95.095,46.008 99.253,48.17 97.923,51.332C97.257,52.664 92.099,50.168 89.603,45.176C87.106,40.184 84.444,39.852 83.114,39.518C81.782,39.186 86.774,41.35 86.94,46.506C82.614,46.008 80.284,43.178 79.786,38.188C75.46,38.02 72.464,35.026 66.974,36.024C61.481,37.022 59.153,35.858 56.323,33.195C55.991,31.531 55.491,26.205 53.995,23.211C52.829,23.377 51.831,24.375 49.669,22.379C49.835,20.881 48.966,20.684 46.005,20.217C46.005,20.217 39.686,19.551 32.863,21.215C26.041,22.879 19.883,19.883 16.391,16.555C12.064,15.058 7.57,14.06 7.738,15.556C7.904,17.054 9.902,19.051 5.574,22.379C2.912,19.051 3.078,15.89 3.91,14.06L1.914,13.893C1.914,13.893 1.582,15.39 0.416,15.556C1.748,17.054 3.744,18.384 0,21.547" style="fill:rgb(245,129,31);fill-rule:nonzero;"/>
        </g>
        <g transform="matrix(1.10214,0,0,1.10214,94.6567,109.442)">
            <path d="M0,-125.247L-92.033,-55.084C-91.563,-55.138 -91.086,-55.167 -90.602,-55.167C-83.584,-55.167 -77.873,-49.457 -77.873,-42.438C-77.873,-40.566 -78.281,-38.79 -79.012,-37.187L-0.5,-107.277L131.231,0L0,-125.247Z" style="fill:rgb(101,97,97);fill-rule:nonzero;"/>
        </g>
        <g transform="matrix(0,1.10214,1.10214,0,-5.19851,52.9824)">
            <path d="M8.788,-8.79C13.642,-8.79 17.578,-4.856 17.578,-0.001C17.578,4.853 13.642,8.788 8.788,8.788C3.935,8.788 0.001,4.853 0.001,-0.001C0.001,-4.856 3.935,-8.79 8.788,-8.79" style="fill:rgb(245,129,31);fill-rule:nonzero;"/>
        </g>
        <g transform="matrix(1.10214,0,0,1.10214,29.1035,166.643)">
            <path d="M0,9.454L-9.349,-16.848L-18.883,9.454L0,9.454ZM-22.302,19.137L-29.781,39.335L-39.913,39.335L-14,-29.881L-4.651,-29.881L21.299,39.335L10.765,39.335L3.467,19.137L-22.302,19.137Z" style="fill:rgb(3,4,5);fill-rule:nonzero;"/>
        </g>
        <g transform="matrix(1.10214,0,0,1.10214,100.416,133.71)">
            <path d="M0,69.216L0,0L32.646,0L32.646,9.214L9.523,9.214L9.523,29.885L32.646,29.885L32.646,38.862L9.523,38.862L9.523,69.216L0,69.216Z" style="fill:rgb(3,4,5);fill-rule:nonzero;"/>
        </g>
        <g transform="matrix(1.10214,0,0,1.10214,198.815,133.71)">
            <path d="M0,69.216L-9.634,69.216L-9.634,0L0,0L0,29.411L27.092,29.411L27.092,0L36.726,0L36.726,69.216L27.092,69.216L27.092,39.217L0,39.217L0,69.216Z" style="fill:rgb(3,4,5);fill-rule:nonzero;"/>
        </g>
    </g>
</svg>
